<svg xmlns="http://www.w3.org/2000/svg" viewBox="0 0 63.568 63.568"><path d="M37.256,20.138,35.15,22.244l6.167,6.167,2.106-2.106a4.361,4.361,0,1,0-6.167-6.167Z" fill="#262626"/><path d="M21.133,36.261a7.7,7.7,0,0,0-2.258,5.468v2.958h2.957A7.707,7.707,0,0,0,27.3,42.426L37.945,31.784l-6.168-6.168Z" fill="#262626"/><path d="M53.142.266H10.425A10.16,10.16,0,0,0,.266,10.425V53.142A10.159,10.159,0,0,0,10.425,63.3H53.142A10.159,10.159,0,0,0,63.3,53.142V10.425A10.159,10.159,0,0,0,53.142.266ZM46.8,29.675,30.673,45.8a12.448,12.448,0,0,1-8.841,3.657H16.489A2.383,2.383,0,0,1,14.1,47.072V41.729a12.449,12.449,0,0,1,3.654-8.839L33.905,16.744a9.18,9.18,0,0,1,12.891.021A9.147,9.147,0,0,1,46.8,29.675Z" fill="#262626"/></svg>