<svg xmlns="http://www.w3.org/2000/svg" viewBox="0 0 63.568 63.568"><path d="M42.726,25.1H20.846a.949.949,0,0,0-.949.948v18.72a5.537,5.537,0,0,0,5.521,5.522h12.73a5.537,5.537,0,0,0,5.525-5.522V26.044A.949.949,0,0,0,42.726,25.1ZM29.152,43.322a1.724,1.724,0,1,1-3.448,0V32.064a1.724,1.724,0,1,1,3.448,0Zm8.709,0a1.724,1.724,0,1,1-3.448,0V32.064a1.724,1.724,0,1,1,3.448,0Z" fill="#262626"/><path d="M41.522,15.145H36.05v-.7a1.166,1.166,0,0,0-1.162-1.163H28.679a1.166,1.166,0,0,0-1.164,1.163v.7H22.046a3.388,3.388,0,0,0-3.376,3.377v2.321a.5.5,0,0,0,.5.5H44.4a.5.5,0,0,0,.5-.5V18.521A3.388,3.388,0,0,0,41.522,15.145Z" fill="#262626"/><path d="M53.142.266H10.425A10.16,10.16,0,0,0,.266,10.425V53.142A10.159,10.159,0,0,0,10.425,63.3H53.142A10.159,10.159,0,0,0,63.3,53.142V10.425A10.159,10.159,0,0,0,53.142.266ZM48.65,20.847a4.213,4.213,0,0,1-1.225,2.973V44.77a9.3,9.3,0,0,1-9.277,9.27H25.414a9.3,9.3,0,0,1-9.269-9.274V23.821a4.21,4.21,0,0,1-1.227-2.978V18.516a7.148,7.148,0,0,1,7.128-7.123h2.781A4.883,4.883,0,0,1,28.68,9.528h6.208a4.881,4.881,0,0,1,3.849,1.865h2.788a7.15,7.15,0,0,1,7.125,7.128Z" fill="#262626"/></svg>